<svg id="logo" xmlns="http://www.w3.org/2000/svg" width="354.285" height="105.02" viewBox="0 0 354.285 105.02">
  <text id="BeatBlast" transform="translate(113.285 76.51)" fill="#fff" font-size="60" font-family="UtileDisplay-Bold, Utile Display" font-weight="700"><tspan x="0" y="0">BeatBlast</tspan></text>
  <g id="Group_1" data-name="Group 1">
    <path id="Path_2" data-name="Path 2" d="M167.243,155.268s-5.258-13.23-10.686-12.552-11.873,12.213-14.078,22.729a164.038,164.038,0,0,0-2.884,34.263c.17,11.025,2.714,30.871,6.446,37.486s6.615,10.516,10.516,10.516,10.686-12.552,10.686-12.552l-1.866-3.9s-1.187,2.035-3.053,2.035c-.959,0-2.411-.4-4.261-2.612-1.351-1.6-3.08-4.843-4.729-10.449-3.392-11.534-3.223-14.927-3.053-25.273s1.018-22.729,4.58-31.04,7.294-6.954,7.463-6.954,3.053,1.866,3.053,1.866Z" transform="translate(-111.23 -142.691)" fill="#fff"/>
    <path id="Path_1" data-name="Path 1" d="M145,147.806s-17.592,5.891-25.779,17.384-9.859,21.04-10.077,28.97c-.247,9.011,1.889,18.421,10.077,30.23s24.761,17.216,24.761,17.216-18.463-24.458-17.833-47.445S145,147.806,145,147.806Z" transform="translate(-109.131 -142.713)" fill="#fff"/>
    <path id="Subtraction_2" data-name="Subtraction 2" d="M-6705.215-2600.45c-2.228,0-4.388-1.256-6.423-3.732a33.5,33.5,0,0,1-5.245-10.18c-3.116-8.972-4.833-20.9-4.833-33.588s1.716-24.615,4.833-33.587a33.5,33.5,0,0,1,5.245-10.179c2.035-2.477,4.2-3.732,6.423-3.732s4.388,1.256,6.423,3.732a33.493,33.493,0,0,1,5.244,10.179c3.116,8.971,4.833,20.9,4.833,33.587s-1.716,24.617-4.833,33.588a33.492,33.492,0,0,1-5.244,10.18C-6700.827-2601.706-6702.987-2600.45-6705.215-2600.45Zm2-79c-1.282,0-2.526.846-3.7,2.515a24.1,24.1,0,0,0-3.02,6.858,82.948,82.948,0,0,0-2.783,22.628,82.939,82.939,0,0,0,2.783,22.627,24.106,24.106,0,0,0,3.02,6.858c1.171,1.668,2.416,2.515,3.7,2.515s2.527-.846,3.7-2.515a24.092,24.092,0,0,0,3.02-6.858,82.967,82.967,0,0,0,2.782-22.627,82.976,82.976,0,0,0-2.782-22.628,24.091,24.091,0,0,0-3.02-6.858C-6700.687-2678.6-6701.932-2679.451-6703.214-2679.451Z" transform="translate(6771 2700)" fill="#fff"/>
    <ellipse id="Ellipse_3" data-name="Ellipse 3" cx="7" cy="14" rx="7" ry="14" transform="translate(87.285 41.55)" fill="#fff"/>
  </g>
</svg>
