<?xml version="1.0" encoding="UTF-8"?>
<svg id="logo" xmlns="http://www.w3.org/2000/svg" viewBox="0 0 353.17 105.02">
  <defs>
    <style>
      .cls-1 {
        fill: #fff;
      }

      .cls-2 {
        isolation: isolate;
      }
    </style>
  </defs>
  <g id="BeatBlast" class="cls-2">
    <g class="cls-2">
      <path class="cls-1" d="m133.15,36.91c8.46,0,12.42,4.92,12.42,9.78,0,3.84-2.52,7.8-7.92,8.82v.12c6.54.96,9.6,5.16,9.6,9.96,0,5.04-3.66,10.92-14.4,10.92h-15.78v-39.6h16.08Zm-7.02,17.28h4.02c4.14,0,6.66-2.76,6.66-7.02s-2.58-6.84-6.96-6.84h-3.72v13.86Zm0,18.84h4.26c5.4,0,7.56-3.36,7.56-7.74s-2.34-7.74-7.8-7.74h-4.02v15.48Z"/>
      <path class="cls-1" d="m178.03,60.07c0,1.02-.06,2.04-.36,3.06h-18.78c.12,6.42,3.42,10.68,8.28,10.68,3.78,0,7.02-2.52,9.18-7.08v7.62c-3,1.86-6.36,2.76-10.32,2.76-9.96,0-15.84-6.18-15.84-14.94s5.76-14.76,14.58-14.76c8.34,0,13.26,5.34,13.26,12.66Zm-13.02-9.42c-3.84,0-6.06,3.72-6.06,9.24h11.46c.3-5.34-1.5-9.24-5.4-9.24Z"/>
      <path class="cls-1" d="m189.25,77.11c-5.1,0-8.82-3.06-8.82-7.8s3.48-7.2,10.62-8.64c4.92-1.08,6.78-2.64,6.78-5.58s-1.74-4.44-4.5-4.44c-3.54,0-6.96,2.7-10.2,7.86v-7.32c3.06-2.4,7.38-3.78,11.64-3.78,6.96,0,11.52,3.66,11.52,10.2v10.14c0,3.36.3,6.36.9,8.76h-8.4l-.42-4.26h-.06c-1.86,3.18-5.22,4.86-9.06,4.86Zm4.32-13.56c-3.12,1.08-4.68,2.76-4.68,5.1s1.5,4.02,3.9,4.02c2.82,0,5.22-2.1,5.22-7.68v-4.38c-.96,1.2-2.34,2.22-4.44,2.94Z"/>
      <path class="cls-1" d="m228.19,75.31c-1.98,1.14-4.5,1.8-7.02,1.8-4.32,0-8.7-1.74-8.7-9.06v-16.8h-3.84v-2.34c5.76.24,8.4-2.88,9.18-9.18h3.06v8.28h6.9v3.24h-6.78v17.94c0,3.06,1.2,4.62,3.36,4.62,1.56,0,2.76-.9,3.84-2.58v4.08Z"/>
      <path class="cls-1" d="m248.53,36.91c8.46,0,12.42,4.92,12.42,9.78,0,3.84-2.52,7.8-7.92,8.82v.12c6.54.96,9.6,5.16,9.6,9.96,0,5.04-3.66,10.92-14.4,10.92h-15.78v-39.6h16.08Zm-7.02,17.28h4.02c4.14,0,6.66-2.76,6.66-7.02s-2.58-6.84-6.96-6.84h-3.72v13.86Zm0,18.84h4.26c5.4,0,7.56-3.36,7.56-7.74s-2.34-7.74-7.8-7.74h-4.02v15.48Z"/>
      <path class="cls-1" d="m267.67,76.51v-32.7c0-2.7-.18-5.88-.6-11.1h9.06v34.98c0,2.46.3,6.48.66,8.82h-9.12Z"/>
      <path class="cls-1" d="m289.21,77.11c-5.1,0-8.82-3.06-8.82-7.8s3.48-7.2,10.62-8.64c4.92-1.08,6.78-2.64,6.78-5.58s-1.74-4.44-4.5-4.44c-3.54,0-6.96,2.7-10.2,7.86v-7.32c3.06-2.4,7.38-3.78,11.64-3.78,6.96,0,11.52,3.66,11.52,10.2v10.14c0,3.36.3,6.36.9,8.76h-8.4l-.42-4.26h-.06c-1.86,3.18-5.22,4.86-9.06,4.86Zm4.32-13.56c-3.12,1.08-4.68,2.76-4.68,5.1s1.5,4.02,3.9,4.02c2.82,0,5.22-2.1,5.22-7.68v-4.38c-.96,1.2-2.34,2.22-4.44,2.94Z"/>
      <path class="cls-1" d="m321.19,66.19c-5.64-1.2-9.84-4.68-9.84-10.08s4.26-8.7,10.5-8.7c3.24,0,6.3.9,8.82,2.58v7.08c-2.58-4.56-5.76-6.42-8.7-6.42-2.34,0-4.08,1.32-4.08,3.48,0,2.52,2.4,3.54,4.98,4.14,5.52,1.14,9.66,4.14,9.66,9.54s-4.2,9.3-10.98,9.3c-3.6,0-7.32-1.08-10.2-3.12v-7.26c3.06,4.92,6.78,7.08,10.2,7.08,2.7,0,4.32-1.32,4.32-3.6,0-2.7-2.4-3.54-4.68-4.02Z"/>
      <path class="cls-1" d="m353.17,75.31c-1.98,1.14-4.5,1.8-7.02,1.8-4.32,0-8.7-1.74-8.7-9.06v-16.8h-3.84v-2.34c5.76.24,8.4-2.88,9.18-9.18h3.06v8.28h6.9v3.24h-6.78v17.94c0,3.06,1.2,4.62,3.36,4.62,1.56,0,2.76-.9,3.84-2.58v4.08Z"/>
    </g>
  </g>
  <g id="Group_1" data-name="Group 1">
    <path id="Path_2" data-name="Path 2" class="cls-1" d="m56.02,12.58S50.76-.65,45.33.03s-11.87,12.21-14.08,22.73c-2.16,11.29-3.13,22.77-2.88,34.26.17,11.02,2.71,30.87,6.45,37.49s6.62,10.52,10.52,10.52,10.69-12.55,10.69-12.55l-1.87-3.9s-1.19,2.04-3.05,2.04c-.96,0-2.41-.4-4.26-2.61-1.35-1.6-3.08-4.84-4.73-10.45-3.39-11.53-3.22-14.93-3.05-25.27s1.02-22.73,4.58-31.04,7.29-6.95,7.46-6.95,3.05,1.87,3.05,1.87l1.87-3.56Z"/>
    <path id="Path_1" data-name="Path 1" class="cls-1" d="m35.87,5.09s-17.59,5.89-25.78,17.38S.24,43.52.02,51.45c-.25,9.01,1.89,18.42,10.08,30.23s24.76,17.22,24.76,17.22c0,0-18.46-24.46-17.83-47.44S35.87,5.09,35.87,5.09Z"/>
    <path id="Subtraction_2" data-name="Subtraction 2" class="cls-1" d="m65.79,99.55c-2.23,0-4.39-1.26-6.42-3.73-2.32-3.07-4.09-6.51-5.25-10.18-3.12-8.97-4.83-20.9-4.83-33.59s1.72-24.61,4.83-33.59c1.15-3.67,2.93-7.11,5.25-10.18,2.04-2.48,4.2-3.73,6.42-3.73s4.39,1.26,6.42,3.73c2.32,3.07,4.09,6.51,5.24,10.18,3.12,8.97,4.83,20.9,4.83,33.59s-1.72,24.62-4.83,33.59c-1.15,3.67-2.92,7.11-5.24,10.18-2.04,2.48-4.19,3.73-6.42,3.73Zm2-79c-1.28,0-2.53.85-3.7,2.51-1.36,2.11-2.38,4.43-3.02,6.86-1.96,7.38-2.9,14.99-2.78,22.63-.12,7.63.82,15.25,2.78,22.63.64,2.43,1.66,4.74,3.02,6.86,1.17,1.67,2.42,2.51,3.7,2.51s2.53-.85,3.7-2.51c1.36-2.11,2.38-4.43,3.02-6.86,1.96-7.38,2.9-14.99,2.78-22.63.12-7.63-.82-15.25-2.78-22.63-.64-2.43-1.66-4.74-3.02-6.86-1.17-1.67-2.42-2.52-3.7-2.52h0Z"/>
    <ellipse id="Ellipse_3" data-name="Ellipse 3" class="cls-1" cx="94.29" cy="55.55" rx="7" ry="14"/>
  </g>
</svg>